<svg id="Layer_1" data-name="Layer 1" xmlns="http://www.w3.org/2000/svg" viewBox="0 0 150 150"><defs><style>.cls-1{fill:#e5e5e5;}.cls-2{fill:#f7f7f5;}.cls-3{fill:#3c3b5c;}.cls-4{fill:#eb5160;}.cls-5{fill:#d84e62;}.cls-6{fill:#fc7588;}</style></defs><title>e2e_ac</title><rect class="cls-1" x="45.24" y="34.05" width="22.56" height="3.21"/><path class="cls-2" d="M67.45,35.52h55.09a5.27,5.27,0,0,1,5.27,5.27v47A5.27,5.27,0,0,1,122.53,93H25.47a5.27,5.27,0,0,1-5.27-5.27v-47a5.27,5.27,0,0,1,5.27-5.27h42Z"/><path class="cls-3" d="M122.53,94.52H25.47a6.75,6.75,0,0,1-6.74-6.74v-47A6.75,6.75,0,0,1,25.47,34h97.06a6.75,6.75,0,0,1,6.74,6.74v47A6.75,6.75,0,0,1,122.53,94.52ZM25.47,37a3.8,3.8,0,0,0-3.8,3.8v47a3.8,3.8,0,0,0,3.8,3.8h97.06a3.8,3.8,0,0,0,3.8-3.8v-47a3.8,3.8,0,0,0-3.8-3.8Z"/><path class="cls-3" d="M63,118.79a1.47,1.47,0,0,1-1.47-1.47V105.84a1.47,1.47,0,1,1,2.95,0v11.49A1.47,1.47,0,0,1,63,118.79Z"/><path class="cls-3" d="M84.83,118.79a1.47,1.47,0,0,1-1.47-1.47V105.84a1.47,1.47,0,1,1,2.95,0v11.49A1.47,1.47,0,0,1,84.83,118.79Z"/><path class="cls-3" d="M73.92,128.37a1.47,1.47,0,0,1-1.47-1.47V105.84a1.47,1.47,0,1,1,2.95,0V126.9A1.47,1.47,0,0,1,73.92,128.37Z"/><circle class="cls-4" cx="110.33" cy="52.33" r="5.08"/><path class="cls-3" d="M110.33,58.89a6.55,6.55,0,1,1,6.55-6.55A6.56,6.56,0,0,1,110.33,58.89Zm0-10.16a3.61,3.61,0,1,0,3.61,3.61A3.61,3.61,0,0,0,110.33,48.72Z"/><path class="cls-3" d="M36.54,58.89a1.47,1.47,0,0,1-1.47-1.47V47.25a1.47,1.47,0,0,1,2.95,0V57.42A1.47,1.47,0,0,1,36.54,58.89Z"/><line class="cls-4" x1="32.35" y1="49.46" x2="40.74" y2="55.21"/><path class="cls-3" d="M40.73,56.68a1.47,1.47,0,0,1-.83-.26l-8.38-5.75a1.47,1.47,0,0,1,1.67-2.43L41.57,54a1.47,1.47,0,0,1-.83,2.69Z"/><line class="cls-4" x1="40.74" y1="49.46" x2="32.35" y2="55.21"/><path class="cls-3" d="M32.36,56.68A1.47,1.47,0,0,1,31.52,54l8.38-5.75a1.47,1.47,0,1,1,1.67,2.43l-8.38,5.75A1.47,1.47,0,0,1,32.36,56.68Z"/><rect class="cls-4" x="32.43" y="86.6" width="82.99" height="12.96" rx="5.03" ry="5.03"/><path class="cls-3" d="M111.72,101H36.13A5.18,5.18,0,0,1,31,95.85V90.3a5.18,5.18,0,0,1,5.18-5.18h75.59a5.18,5.18,0,0,1,5.18,5.18v5.55A5.18,5.18,0,0,1,111.72,101Zm-75.59-13a2.23,2.23,0,0,0-2.23,2.23v5.55a2.23,2.23,0,0,0,2.23,2.23h75.59A2.23,2.23,0,0,0,114,95.85V90.3a2.23,2.23,0,0,0-2.23-2.23Z"/><path class="cls-3" d="M111.05,80.32H93.11a1.47,1.47,0,1,1,0-2.95h17.94a1.47,1.47,0,1,1,0,2.95Z"/><path class="cls-3" d="M87.13,80.32H86.8a1.47,1.47,0,0,1,0-2.95h.33a1.47,1.47,0,1,1,0,2.95Z"/><path class="cls-3" d="M80.79,80.32H32.35a1.47,1.47,0,1,1,0-2.95H80.79a1.47,1.47,0,0,1,0,2.95Z"/><path class="cls-5" d="M34,93.17v2.76a2.21,2.21,0,0,0,2.11,2.16h75.67a2.22,2.22,0,0,0,2.11-2.16V93.17Z"/><path class="cls-1" d="M21.65,44.66V40.51S22,37.17,25.22,37h1.11l90.27-.11h6.16a3.88,3.88,0,0,1,3.54,3.45v4.34Z"/><rect class="cls-6" x="93.19" y="89.07" width="18.75" height="2.94" rx="1.36" ry="1.36"/></svg>