<svg id="Layer_1" data-name="Layer 1" xmlns="http://www.w3.org/2000/svg" viewBox="0 0 150 150"><defs><style>.cls-1{fill:#f7f7f5;}.cls-2{fill:#e5e5e5;}.cls-3{fill:#3c3b5c;}.cls-4{fill:#eb5160;}.cls-5{fill:#fc7588;}.cls-6{fill:#d84e62;}</style></defs><title>e2e_appliances</title><polygon class="cls-1" points="30.43 24.45 30.43 123.56 121.59 123.56 121.59 60.91 120.02 59.34 83.24 58.82 83.36 26 81.8 24.45 30.43 24.45"/><polygon class="cls-2" points="30.43 26 30.43 122.06 32.13 123.56 40.22 123.56 40.22 24.45 32.2 24.45 30.43 26"/><path class="cls-3" d="M83.36,37.65a1.39,1.39,0,0,1-1-.41,1,1,0,0,1-.17-.21,1.16,1.16,0,0,1-.13-.24,1.12,1.12,0,0,1-.08-.26,1.18,1.18,0,0,1,0-.27,1.38,1.38,0,0,1,1.65-1.35,1.07,1.07,0,0,1,.25.08,1.17,1.17,0,0,1,.24.13,1.22,1.22,0,0,1,.21.17,1.37,1.37,0,0,1,0,2,1.24,1.24,0,0,1-.21.17l-.24.12-.25.08Z"/><path class="cls-3" d="M84.74,75.38H29V26A2.94,2.94,0,0,1,32,23.07H81.8A2.94,2.94,0,0,1,84.74,26v5.45a1.38,1.38,0,0,1-2.76,0V26a.17.17,0,0,0-.17-.17H32a.17.17,0,0,0-.17.17V72.62H82V41a1.38,1.38,0,1,1,2.76,0Z"/><path class="cls-3" d="M81.86,124.94H31.92A2.88,2.88,0,0,1,29,122.06V75.5a2.88,2.88,0,0,1,2.88-2.88H81.86a2.88,2.88,0,0,1,2.88,2.88v46.56A2.88,2.88,0,0,1,81.86,124.94ZM31.92,75.38a.12.12,0,0,0-.12.12v46.56a.12.12,0,0,0,.12.12H81.86a.12.12,0,0,0,.12-.12V75.5a.12.12,0,0,0-.12-.12Z"/><rect class="cls-1" x="68.66" y="59.34" width="52.93" height="64.22" rx="2.29" ry="2.29"/><path class="cls-3" d="M120,124.94H70.24a3,3,0,0,1-3-3V60.91a3,3,0,0,1,3-3H120a3,3,0,0,1,3,3V122A3,3,0,0,1,120,124.94ZM70.24,60.72a.2.2,0,0,0-.2.2V122a.2.2,0,0,0,.2.2H120a.2.2,0,0,0,.2-.2V60.91a.2.2,0,0,0-.2-.2Z"/><rect class="cls-2" x="70.02" y="60.78" width="8.43" height="61.38"/><path class="cls-3" d="M121.59,73.28H68.66a1.38,1.38,0,1,1,0-2.76h52.93a1.38,1.38,0,1,1,0,2.76Z"/><path class="cls-3" d="M87.53,73.28a1.38,1.38,0,0,1-1.38-1.38V59.34a1.38,1.38,0,1,1,2.76,0V71.9A1.38,1.38,0,0,1,87.53,73.28Z"/><circle class="cls-1" cx="94.95" cy="96.8" r="16.5"/><path class="cls-3" d="M94.95,114.68A17.88,17.88,0,1,1,112.83,96.8,17.9,17.9,0,0,1,94.95,114.68Zm0-33A15.12,15.12,0,1,0,110.07,96.8,15.14,15.14,0,0,0,94.95,81.68Z"/><path class="cls-4" d="M98,96.8a14.8,14.8,0,0,1,3.57-9.65,11.7,11.7,0,1,0,0,19.31A14.8,14.8,0,0,1,98,96.8Z"/><path class="cls-3" d="M94.95,109.89A13.08,13.08,0,1,1,102.35,86l1.26.87-1,1.17a13.47,13.47,0,0,0,0,17.51l1,1.17-1.26.87A13,13,0,0,1,94.95,109.89Zm0-23.41a10.32,10.32,0,1,0,4.57,19.58,16.23,16.23,0,0,1,0-18.52A10.27,10.27,0,0,0,94.95,86.48Z"/><circle class="cls-5" cx="95.46" cy="103.84" r="1.41" transform="translate(-31.66 164.96) rotate(-73.09)"/><rect class="cls-3" x="36.37" y="46.9" width="2.64" height="22.14" rx="1.32" ry="1.32"/><rect class="cls-3" x="36.37" y="79.71" width="2.64" height="22.14" rx="1.32" ry="1.32"/><circle class="cls-4" cx="113.76" cy="65.62" r="2.57"/><path class="cls-3" d="M113.76,69.57a4,4,0,1,1,4-4A4,4,0,0,1,113.76,69.57Zm0-5.15A1.19,1.19,0,1,0,115,65.62,1.2,1.2,0,0,0,113.76,64.43Z"/><path class="cls-6" d="M88.18,96.8a10.33,10.33,0,0,1,8.55-10.17,10.34,10.34,0,1,0,0,20.34A10.33,10.33,0,0,1,88.18,96.8Z"/></svg>