<svg id="Layer_1" data-name="Layer 1" xmlns="http://www.w3.org/2000/svg" viewBox="0 0 150 150"><defs><style>.cls-1{fill:#f7f7f5;}.cls-2{fill:#e5e5e5;}.cls-3{fill:#fbf5f3;stroke:#3c3b5c;stroke-linecap:round;stroke-miterlimit:10;stroke-width:4px;}.cls-4{fill:#3c3b5c;}.cls-5{fill:#eb5160;}.cls-6{fill:#d84e62;}.cls-7{fill:#fc7588;}</style></defs><title>e2e_carpentry</title><polygon class="cls-1" points="41.43 83.4 76.22 58.29 121.21 25.92 125.12 26.28 128.66 32.7 126.14 40.39 116.9 45.41 111.84 55.76 101.99 59.87 98.87 68.65 88.96 73.07 86.31 82.61 75.5 87.31 71.8 96.42 61.81 100.64 60.55 110.49 50.09 97.46 41.43 83.4"/><polygon class="cls-2" points="43.63 90.92 126.59 30.55 121.21 25.92 38.55 85.29 43.63 90.92"/><line class="cls-3" x1="64.68" y1="68.42" x2="41.43" y2="85.29"/><path class="cls-4" d="M69.89,66.32A1.55,1.55,0,0,1,69,63.51l.47-.34a1.55,1.55,0,0,1,1.81,2.52L70.8,66A1.55,1.55,0,0,1,69.89,66.32Z"/><path class="cls-4" d="M59.34,111.54a1.55,1.55,0,0,1-1.47-2l3-9.08a3.11,3.11,0,0,1,1.77-1.91L71.21,95,74,86.8a3.09,3.09,0,0,1,1.88-1.91l9.27-3.35,2.45-8.36a3.12,3.12,0,0,1,1.88-2l7.89-3,2.85-8.32a3.1,3.1,0,0,1,1.84-1.9l8.66-3.28,2.64-8.31a3.1,3.1,0,0,1,1.84-2L124,41l2.6-8L123,28.41,76.42,61.85a1.55,1.55,0,0,1-1.81-2.52l46.55-33.44a3.1,3.1,0,0,1,4.28.62L129,31.16a3.1,3.1,0,0,1,.49,2.86L126.93,42a3.09,3.09,0,0,1-1.84,1.94l-8.74,3.37-2.64,8.31a3.1,3.1,0,0,1-1.86,2l-8.66,3.28-2.85,8.32a3.1,3.1,0,0,1-1.84,1.9l-7.89,3-2.45,8.36a3.12,3.12,0,0,1-1.93,2.05L77,87.81,74.15,96a3.11,3.11,0,0,1-1.76,1.87l-8.6,3.53-3,9.09A1.55,1.55,0,0,1,59.34,111.54Z"/><path class="cls-5" d="M58.22,108.27,42,86.1a6.62,6.62,0,0,0-9.22-1.44L18.58,95.05a6.62,6.62,0,0,0-1.44,9.22l16.2,22.17a6.62,6.62,0,0,0,9.22,1.44L56.78,117.5A6.62,6.62,0,0,0,58.22,108.27Zm-9.17,5.92-1.87,1.37a4.2,4.2,0,0,1-5.86-.91l-10.52-14.4a4.2,4.2,0,0,1,.91-5.86L33.59,93a4.2,4.2,0,0,1,5.86.91L50,108.34A4.2,4.2,0,0,1,49.05,114.2Z"/><path class="cls-4" d="M38.67,130.7a8.15,8.15,0,0,1-6.59-3.34L15.89,105.19A8.17,8.17,0,0,1,17.66,93.8L31.88,83.41a8.17,8.17,0,0,1,11.39,1.77l16.19,22.17a8.16,8.16,0,0,1-1.77,11.39L43.47,129.14A8.11,8.11,0,0,1,38.67,130.7Zm-2-45.75a5,5,0,0,0-3,1L19.49,96.3a5.07,5.07,0,0,0-1.1,7.06l16.19,22.17a5.06,5.06,0,0,0,7.06,1.1l14.22-10.39a5.07,5.07,0,0,0,1.1-7.06L40.77,87a5,5,0,0,0-3.3-2A5.15,5.15,0,0,0,36.67,84.95Zm8,33a5.74,5.74,0,0,1-4.64-2.35l-10.52-14.4a5.75,5.75,0,0,1,1.25-8l1.87-1.37a5.76,5.76,0,0,1,8,1.25l10.52,14.4a5.75,5.75,0,0,1-1.25,8l-1.87,1.37A5.71,5.71,0,0,1,44.71,117.92ZM36.05,93.78a2.61,2.61,0,0,0-1.55.5l-1.87,1.37a2.65,2.65,0,0,0-.57,3.69l10.52,14.4a2.64,2.64,0,0,0,3.69.57l1.87-1.37a2.65,2.65,0,0,0,.57-3.69L38.19,94.86a2.63,2.63,0,0,0-1.73-1A2.78,2.78,0,0,0,36.05,93.78Z"/><path class="cls-6" d="M43.63,90.92l-3-4.1A5.09,5.09,0,0,0,34,85.69L19.16,96.55a5,5,0,0,0-.91,6.55l3.19,4.4,8.2-6.18a6,6,0,0,1,.64-7.76l2.66-2a5.69,5.69,0,0,1,7.14.71l.73.87Z"/><rect class="cls-7" x="31.61" y="108.67" width="3.79" height="17.94" rx="1.72" ry="1.72" transform="translate(-63.39 42.98) rotate(-36.49)"/></svg>