<svg id="Layer_1" data-name="Layer 1" xmlns="http://www.w3.org/2000/svg" viewBox="0 0 150 150"><defs><style>.cls-1{fill:none;stroke-width:4px;}.cls-1,.cls-2{stroke:#3c3b5c;stroke-linecap:round;stroke-linejoin:round;}.cls-2{fill:#eb5160;stroke-width:3px;}</style></defs><title>e2e_construction</title><rect class="cls-1" x="28.17" y="47.09" width="25.35" height="14.51"/><polygon class="cls-1" points="69.32 47.09 80.33 61.59 128.56 61.59 114.44 47.09 69.32 47.09"/><line class="cls-1" x1="54.07" y1="77.95" x2="54.07" y2="123.54"/><line class="cls-1" x1="70.1" y1="77.95" x2="70.1" y2="123.54"/><line class="cls-1" x1="38.82" y1="123.54" x2="85.02" y2="123.54"/><line class="cls-1" x1="55.24" y1="78.67" x2="68.93" y2="91.29"/><line class="cls-1" x1="68.93" y1="89.09" x2="54.07" y2="103.92"/><line class="cls-1" x1="55.24" y1="99.96" x2="68.93" y2="112.57"/><line class="cls-1" x1="68.93" y1="110.37" x2="56.89" y2="122.38"/><polyline class="cls-1" points="114.44 47.09 84.05 36.1 82.34 35.48 78.92 34.24 76.06 33.21 58.63 26.9 56.34 26.08 53.52 28.18 28.17 47.09 40.84 59.77 53.52 47.09 53.52 28.18"/><polyline class="cls-1" points="90.66 47.09 103.34 59.77 114.13 48.03"/><line class="cls-1" x1="93.07" y1="47.09" x2="80.49" y2="59.98"/><line class="cls-1" x1="69.32" y1="47.09" x2="54.86" y2="28.79"/><line class="cls-1" x1="128.56" y1="87.21" x2="128.56" y2="61.59"/><polygon class="cls-1" points="69.25 47.09 53.52 47.09 53.52 61.64 80.46 61.82 69.25 47.09"/><polygon class="cls-2" points="53.52 61.64 53.52 77.95 80.49 77.95 80.49 61.86 80.46 61.82 53.52 61.64"/></svg>