<svg id="Layer_1" data-name="Layer 1" xmlns="http://www.w3.org/2000/svg" viewBox="0 0 150 150"><defs><style>.cls-1{fill:#f7f7f5;}.cls-2{fill:#3c3b5c;}.cls-3{fill:#eb5160;}.cls-4{fill:#fc7588;}.cls-5{fill:#e5e5e5;}.cls-6{fill:#d84e62;}</style></defs><title>e2e_electrical</title><rect class="cls-1" x="108.55" y="44.02" width="12.73" height="54.13" rx="5.82" ry="5.82" transform="translate(83.92 -60.44) rotate(45)"/><path class="cls-2" d="M100.28,93.73a7.61,7.61,0,0,1-5.42-2.24l-.35-.35a7.67,7.67,0,0,1,0-10.84l29.63-29.63a7.68,7.68,0,0,1,10.84,0l.35.35a7.68,7.68,0,0,1,0,10.84L105.7,91.49A7.61,7.61,0,0,1,100.28,93.73Zm29.28-42.2a4.53,4.53,0,0,0-3.23,1.33L96.7,82.5a4.57,4.57,0,0,0,0,6.45l.35.35a4.58,4.58,0,0,0,6.45,0l29.63-29.63a4.57,4.57,0,0,0,0-6.45l-.35-.35A4.53,4.53,0,0,0,129.56,51.54Z"/><rect class="cls-1" x="75.21" y="10.67" width="12.73" height="54.13" rx="5.82" ry="5.82" transform="translate(50.57 -46.63) rotate(45)"/><path class="cls-2" d="M66.93,60.39a7.64,7.64,0,0,1-5.42-2.24h0l-.35-.35a7.68,7.68,0,0,1,0-10.84L90.79,17.32a7.67,7.67,0,0,1,10.84,0l.35.35a7.67,7.67,0,0,1,0,10.84L72.35,58.15A7.64,7.64,0,0,1,66.93,60.39ZM63.7,56a4.57,4.57,0,0,0,6.45,0L99.79,26.32a4.57,4.57,0,0,0,0-6.45l-.35-.35a4.57,4.57,0,0,0-6.45,0L63.35,49.15a4.58,4.58,0,0,0,0,6.45Z"/><path class="cls-1" d="M90.34,114.27,82,122.33a4.34,4.34,0,0,1-2.39.77L66.09,124l7.32-9.35Z"/><rect class="cls-3" x="24.22" y="111.35" width="20.76" height="10.78" rx="1.51" ry="1.51" transform="translate(92.69 9.73) rotate(45)"/><path class="cls-2" d="M38.13,129a2.7,2.7,0,0,1-1.92-.8l-13-13a2.72,2.72,0,0,1,0-3.85l6-6a2.79,2.79,0,0,1,3.85,0l13,13a2.73,2.73,0,0,1,0,3.85l-6,6A2.7,2.7,0,0,1,38.13,129Zm.27-3h0ZM25.64,113.22l12.48,12.48,5.43-5.43L31.07,107.79Z"/><path class="cls-1" d="M97,105.77l6.28-6a2.59,2.59,0,0,0,.09-3.7L56.55,49.32a2.59,2.59,0,0,0-3.66.05l-15,15-4.45,4.45-2.6,2.6a2.67,2.67,0,0,0-.77,1.6l-.43,4-.7,6.41-2,18.39a2.52,2.52,0,0,0,.72,2.06l19.61,19.61a2.52,2.52,0,0,0,2,.72l21.69-2,8.8-.62a2.67,2.67,0,0,0,1.62-.74l5.88-5.75,1.94-1.85"/><path class="cls-2" d="M49.05,125.75a4.06,4.06,0,0,1-2.88-1.19L26.57,105a4.06,4.06,0,0,1-1.16-3.33l3.12-28.78a4.23,4.23,0,0,1,1.21-2.53L51.8,48.27a4.14,4.14,0,0,1,5.85-.05L104.43,95a4,4,0,0,1,1.19,2.92,4.18,4.18,0,0,1-1.3,3l-6.29,6a1.55,1.55,0,0,1-2.14-2.25l6.28-6a1.1,1.1,0,0,0,.34-.78,1,1,0,0,0-.28-.7L55.46,50.41a1,1,0,0,0-1.47.05L31.93,72.52a1.13,1.13,0,0,0-.32.67L28.49,102a1,1,0,0,0,.27.8l19.61,19.61a1,1,0,0,0,.78.27l21.68-2,8.83-.62a1.11,1.11,0,0,0,.65-.31l7.82-7.61a1.55,1.55,0,1,1,2.14,2.24l-1.94,1.86L82.47,122a4.24,4.24,0,0,1-2.57,1.17l-8.82.62-21.66,2Z"/><line class="cls-1" x1="92.87" y1="109.71" x2="93.13" y2="109.45"/><path class="cls-2" d="M92.87,111.26a1.55,1.55,0,0,1-1.09-2.66l.26-.26a1.55,1.55,0,1,1,2.17,2.21l-.26.26A1.54,1.54,0,0,1,92.87,111.26Z"/><rect class="cls-3" x="45.28" y="56.29" width="81.58" height="20.59" rx="3.04" ry="3.04" transform="translate(72.29 -41.36) rotate(45)"/><path class="cls-2" d="M107.63,103.27a3.9,3.9,0,0,1-2.77-1.14h0L50.52,47.78a3.92,3.92,0,0,1,0-5.53L61.74,31a3.91,3.91,0,0,1,5.53,0l54.35,54.35a3.91,3.91,0,0,1,0,5.53L110.4,102.13A3.89,3.89,0,0,1,107.63,103.27Zm-.57-3.34a.81.81,0,0,0,1.15,0l11.22-11.22a.81.81,0,0,0,0-1.14L65.08,33.22a.83.83,0,0,0-1.14,0L52.71,44.45a.81.81,0,0,0,0,1.14l54.35,54.35Z"/><rect class="cls-4" x="99.64" y="78.82" width="3.77" height="20.36" rx="1.72" ry="1.72" transform="translate(-33.2 97.85) rotate(-45)"/><rect class="cls-4" x="35.31" y="117.55" width="2.94" height="6.56" rx="1.35" ry="1.35" transform="translate(148.23 180.27) rotate(135)"/><polygon class="cls-5" points="62.19 79.14 52.84 88.48 47.1 81.5 55.54 73.19 62.19 79.14"/><path class="cls-2" d="M70.68,106.57a4.66,4.66,0,0,1-3.3-1.36h0L47.44,85.27a4.68,4.68,0,0,1,0-6.6l5.28-5.28a4.68,4.68,0,0,1,6.6,0L79.27,93.32a4.68,4.68,0,0,1,0,6.6L74,105.21A4.66,4.66,0,0,1,70.68,106.57ZM69.57,103a1.57,1.57,0,0,0,2.22,0l5.28-5.28a1.57,1.57,0,0,0,0-2.22L57.14,75.58a1.57,1.57,0,0,0-2.22,0l-5.28,5.28a1.57,1.57,0,0,0,0,2.22L69.57,103Z"/><path class="cls-5" d="M98.1,18.74a4.89,4.89,0,0,0-5.24.88L74.4,38.2l2.2,2.07Z"/><path class="cls-5" d="M131.5,52.11a4.85,4.85,0,0,0-5.28.92L107.76,71.61l2.2,2.07Z"/><path class="cls-6" d="M69,37.19,65,33.27a.81.81,0,0,0-1,0L52.8,44.45a.79.79,0,0,0,.11,1.19l3.65,3.67Z"/><polygon class="cls-5" points="53.6 50.94 60.06 57.41 30.18 87.29 31.66 72.9 53.6 50.94"/><polygon class="cls-6" points="30.23 108.71 31.92 110.41 27.43 114.9 25.71 113.22 30.23 108.71"/></svg>