<svg id="Layer_1" data-name="Layer 1" xmlns="http://www.w3.org/2000/svg" viewBox="0 0 150 150"><defs><style>.cls-1{fill:#f7f7f5;}.cls-2{fill:#e5e5e5;}.cls-3{fill:#3c3b5c;}.cls-4{fill:#eb5160;}.cls-5{fill:#d84e62;}.cls-6{fill:#fc7588;}</style></defs><title>HCnew-8</title><polygon class="cls-1" points="54.44 56.49 54.44 39.3 59.05 27 67.32 21.29 79.22 18.28 89.59 20.54 96.36 25.09 101.7 32.24 104.24 41.33 104.33 52.98 104.33 108.28 102.48 110.91 98.87 110.91 96.36 109.34 96.36 86.76 96.36 43.89 93.14 33.96 87.8 29.19 78.08 27 67.71 30.92 63.04 39.93 62.57 52.52 60.74 55.48 54.44 56.49"/><path class="cls-2" d="M63.23,25.88l-3,1.71L55.6,34.87l-1.5,12,.34,9.64,3.77-1.55S56.05,32.47,63.23,25.88Z"/><path class="cls-1" d="M75.93,53v68.42H35.82S17,55.68,75.93,53Z"/><path class="cls-3" d="M77.38,122.86H34.73l-.3-1a89.29,89.29,0,0,1-2.84-18.9C31.13,93.06,32.22,79,40,68.24c7.42-10.33,19.49-16,35.88-16.71l1.52-.06ZM36.94,120H74.48V54.52C59.8,55.49,49,60.67,42.34,69.93,29.83,87.35,35.56,114.32,36.94,120Z"/><path class="cls-2" d="M55.21,59.2s-30,11.26-18.14,60.68H48.46S32.64,93,55.21,59.2Z"/><path class="cls-3" d="M33,98.32a1.45,1.45,0,0,1-.35-2.86c11.59-2.93,17.13-7.26,22.31-13.29a1.45,1.45,0,0,1,2.21,1.89C49.66,92.78,42.49,96,33.34,98.27A1.49,1.49,0,0,1,33,98.32Z"/><path class="cls-3" d="M59.08,80.46a1.33,1.33,0,0,1-.76-.23,1.48,1.48,0,0,1-.39-2v0a1.45,1.45,0,1,1,2.41,1.61A1.52,1.52,0,0,1,59.08,80.46ZM59.14,79l1.22.79Zm0,0,0,0"/><path class="cls-3" d="M61.81,75.75a1.45,1.45,0,0,1-1.3-2.09A49.5,49.5,0,0,0,65.29,54a1.44,1.44,0,0,1,1.44-1.46h0A1.44,1.44,0,0,1,68.19,54a51.27,51.27,0,0,1-5.08,20.93A1.45,1.45,0,0,1,61.81,75.75Z"/><circle class="cls-4" cx="70.13" cy="112.64" r="11.08"/><path class="cls-3" d="M70.13,125.17a12.53,12.53,0,1,1,12.53-12.53A12.54,12.54,0,0,1,70.13,125.17Zm0-22.15a9.63,9.63,0,1,0,9.63,9.62A9.63,9.63,0,0,0,70.13,103Z"/><polygon class="cls-1" points="116.71 122.86 83.91 122.86 86.42 110.91 114.2 110.91 116.71 122.86"/><path class="cls-3" d="M118.5,124.31H82.13l3.12-14.85h30.13Zm-32.8-2.9h29.22l-1.9-9H87.6Z"/><path class="cls-3" d="M104.33,112.36a1.45,1.45,0,0,1-1.45-1.45V43.39a23.67,23.67,0,0,0-47.33,0V57.73a1.45,1.45,0,0,1-2.9,0V43.39a26.57,26.57,0,0,1,53.13,0v67.52A1.45,1.45,0,0,1,104.33,112.36Z"/><path class="cls-3" d="M96.36,112.36a1.45,1.45,0,0,1-1.45-1.45v-67a15.45,15.45,0,0,0-30.89,0V55a1.45,1.45,0,1,1-2.9,0V43.89a18.35,18.35,0,1,1,36.7,0v67A1.45,1.45,0,0,1,96.36,112.36Z"/><path class="cls-5" d="M63.39,112.64A10.25,10.25,0,0,1,70.11,103a9.63,9.63,0,0,0,0,19.25A10.25,10.25,0,0,1,63.39,112.64Z"/><circle class="cls-6" cx="74.1" cy="117.61" r="1.49"/><polygon class="cls-2" points="87.6 112.37 85.7 121.41 91.34 121.41 93.24 112.37 87.6 112.37"/></svg>