<svg id="Layer_1" data-name="Layer 1" xmlns="http://www.w3.org/2000/svg" viewBox="0 0 150 150"><defs><style>.cls-1{fill:#f7f7f5;}.cls-2{fill:#3c3b5c;}.cls-3{fill:#eb5160;}.cls-4{fill:#d84e62;}.cls-5{fill:#e5e5e5;}</style></defs><title>e2e_packers&amp;amp;movers</title><path class="cls-1" d="M91.22,56h29.71a1.82,1.82,0,0,1,1.62,1l12.31,23.68a1.82,1.82,0,0,1,.21.84v22.46a1.82,1.82,0,0,1-1.82,1.82H22.63a1.82,1.82,0,0,1-1.82-1.82V90.41H89.39V57.78A1.82,1.82,0,0,1,91.22,56Z"/><path class="cls-2" d="M133.23,107.31H22.63a3.39,3.39,0,0,1-3.39-3.39V88.85H87.83V57.78a3.39,3.39,0,0,1,3.39-3.39h29.71a3.38,3.38,0,0,1,3,1.83L136.24,79.9a3.39,3.39,0,0,1,.38,1.56v22.46A3.39,3.39,0,0,1,133.23,107.31ZM22.37,92v11.94a.26.26,0,0,0,.26.26h110.6a.26.26,0,0,0,.26-.26V81.46a.25.25,0,0,0,0-.12L121.16,57.66a.26.26,0,0,0-.23-.14H91.22a.26.26,0,0,0-.26.26V92Z"/><circle class="cls-3" cx="42.72" cy="106.51" r="9.99"/><path class="cls-2" d="M42.72,118.07a11.56,11.56,0,1,1,11.55-11.56A11.57,11.57,0,0,1,42.72,118.07Zm0-20a8.43,8.43,0,1,0,8.43,8.43A8.44,8.44,0,0,0,42.72,98.08Z"/><path class="cls-4" d="M37,106.51a9.39,9.39,0,0,1,4.79-8.18,8.23,8.23,0,0,0,0,16.37A9.39,9.39,0,0,1,37,106.51Z"/><circle class="cls-3" cx="111.58" cy="106.51" r="9.99"/><path class="cls-2" d="M111.58,118.07a11.56,11.56,0,1,1,11.56-11.56A11.57,11.57,0,0,1,111.58,118.07Zm0-20a8.43,8.43,0,1,0,8.43,8.43A8.44,8.44,0,0,0,111.58,98.08Z"/><path class="cls-4" d="M105.85,106.51a9.39,9.39,0,0,1,4.79-8.18,8.23,8.23,0,0,0,0,16.37A9.39,9.39,0,0,1,105.85,106.51Z"/><path class="cls-1" d="M20.81,48.69V39.11a1.61,1.61,0,0,1,1.61-1.61H87.78a1.61,1.61,0,0,1,1.61,1.61v51.3H20.81V60.47"/><path class="cls-2" d="M91,92H19.24V60.47a1.56,1.56,0,1,1,3.13,0V88.85H87.83V39.11l-65.41,0,0,9.63a1.56,1.56,0,0,1-3.13,0V39.11a3.18,3.18,0,0,1,3.17-3.17H87.78A3.18,3.18,0,0,1,91,39.11Z"/><path class="cls-2" d="M20.81,55.84a1.56,1.56,0,0,1-1.56-1.56,1.33,1.33,0,0,1,0-.3,1.41,1.41,0,0,1,.09-.3,1.77,1.77,0,0,1,.14-.27,1.89,1.89,0,0,1,.2-.23,1.37,1.37,0,0,1,.24-.2,1.29,1.29,0,0,1,.27-.15,1.31,1.31,0,0,1,.3-.09,1.61,1.61,0,0,1,.61,0,1.24,1.24,0,0,1,.29.09,1.32,1.32,0,0,1,.27.15,1.12,1.12,0,0,1,.24.2,1.57,1.57,0,0,1,.46,1.1,2.06,2.06,0,0,1,0,.31,1.28,1.28,0,0,1-.09.29,1.54,1.54,0,0,1-.14.27,1.43,1.43,0,0,1-.2.23,1.12,1.12,0,0,1-.24.2,1.3,1.3,0,0,1-.27.15,1.24,1.24,0,0,1-.29.09A1.33,1.33,0,0,1,20.81,55.84Z"/><path class="cls-1" d="M126,82.33H96.44V62.69H114.8a1.9,1.9,0,0,1,1.7,1Z"/><path class="cls-2" d="M126,83.89H96.44a1.56,1.56,0,0,1-1.56-1.56V62.69a1.56,1.56,0,0,1,1.56-1.56H114.8a3.45,3.45,0,0,1,3.09,1.9l9.46,18.59A1.56,1.56,0,0,1,126,83.89ZM98,80.76h25.4l-8.3-16.32a.34.34,0,0,0-.3-.19H98Z"/><rect class="cls-5" x="22.38" y="39.1" width="8.86" height="49.75"/><path class="cls-5" d="M22.38,92h8.86a0,0,0,0,1,0,0v12.2a0,0,0,0,1,0,0H22.73a.35.35,0,0,1-.35-.35V92A0,0,0,0,1,22.38,92Z"/></svg>