<svg id="Layer_1" data-name="Layer 1" xmlns="http://www.w3.org/2000/svg" viewBox="0 0 150 150"><defs><style>.cls-1{fill:#eb5160;}.cls-2{fill:#3c3b5c;}.cls-3{fill:#f7f7f5;}.cls-4{fill:#d84e62;}.cls-5{fill:#e5e5e5;}.cls-6{fill:#fc7588;}</style></defs><title>e2e_painting</title><rect class="cls-1" x="52.09" y="40.65" width="84.15" height="24.05" rx="7.73" ry="7.73" transform="translate(64.83 -51.15) rotate(45)"/><path class="cls-2" d="M115.41,90a7.18,7.18,0,0,1-5.1-2.11L58.91,36.53a7.24,7.24,0,0,1,0-10.21l8.9-8.89a7.21,7.21,0,0,1,10.2,0l51.4,51.39a7.24,7.24,0,0,1,0,10.21l-8.9,8.89A7.16,7.16,0,0,1,115.41,90Zm-3-4.2a4.27,4.27,0,0,0,6,0l8.9-8.9a4.25,4.25,0,0,0,0-6L75.92,19.52a4.29,4.29,0,0,0-6,0L61,28.42a4.26,4.26,0,0,0,0,6Z"/><path class="cls-2" d="M58.2,88.31a1.48,1.48,0,0,1-1.05-2.53L64,78.94a6.22,6.22,0,0,1,8-.69l10.24,7.36A1.48,1.48,0,1,1,80.48,88L70.25,80.66a3.26,3.26,0,0,0-4.16.38l-6.84,6.84A1.48,1.48,0,0,1,58.2,88.31Z"/><path class="cls-2" d="M86.45,91.7a1.51,1.51,0,0,1-1-.43,1.47,1.47,0,0,1-.43-1,2.64,2.64,0,0,1,0-.29l.09-.28a2.15,2.15,0,0,1,.14-.26l.18-.22.22-.19.26-.13a1.52,1.52,0,0,1,.28-.09,1.54,1.54,0,0,1,1.34.41,1.5,1.5,0,0,1,.44,1,1.48,1.48,0,0,1-.44,1A1.51,1.51,0,0,1,86.45,91.7Z"/><path class="cls-2" d="M112.19,108.51a6.25,6.25,0,0,1-3.57-1.12l-18-12.52a1.49,1.49,0,0,1,1.7-2.44l18,12.52a3.25,3.25,0,0,0,4.18-.36l12.43-12.43a3.27,3.27,0,0,0,0-4.61l-4.07-4.07a1.48,1.48,0,0,1,2.1-2.1L129,85.45a6.22,6.22,0,0,1,0,8.8l-12.44,12.44A6.17,6.17,0,0,1,112.19,108.51Z"/><path class="cls-3" d="M64.25,92.74,34.37,122.63a1.77,1.77,0,0,1-2.5,0l-9.34-9.33a1.77,1.77,0,0,1,0-2.5L52.42,80.91"/><path class="cls-2" d="M33.12,124.63a3.2,3.2,0,0,1-2.3-.95l-9.34-9.33a3.25,3.25,0,0,1,0-4.6L51.37,79.86a1.48,1.48,0,1,1,2.1,2.1L23.58,111.84a.3.3,0,0,0,0,.41l9.33,9.33a.29.29,0,0,0,.41,0L63.21,91.7a1.48,1.48,0,0,1,2.09,2.09L35.42,123.68A3.23,3.23,0,0,1,33.12,124.63Z"/><path class="cls-2" d="M66.08,96.05a1.49,1.49,0,0,1-1-.44L49.57,80.16a1.48,1.48,0,0,1,2.1-2.1L67.13,93.52a1.49,1.49,0,0,1-1,2.53Z"/><path class="cls-4" d="M76.16,19.77a4.14,4.14,0,0,0-6.27-.23l-3.65,3.64,57.88,57L127.3,77s3.52-3.1-.83-7Z"/><polygon class="cls-5" points="52.39 83 62.15 92.72 57.12 97.75 47.55 87.84 52.39 83"/><rect class="cls-6" x="107.25" y="68" width="3.63" height="19.48" rx="1.6" ry="1.6" transform="translate(-23.02 99.89) rotate(-45)"/></svg>