<svg id="Layer_1" data-name="Layer 1" xmlns="http://www.w3.org/2000/svg" viewBox="0 0 150 150"><defs><style>.cls-1{fill:#f7f7f5;}.cls-2{fill:#3c3b5c;}.cls-3{fill:#eb5160;}.cls-4{fill:#d84e62;}.cls-5{fill:#e5e5e5;}</style></defs><title>e2e_pest_control1</title><path class="cls-1" d="M78,62.88l-.23-.24A8.69,8.69,0,0,0,65.5,74.93l.24.23"/><path class="cls-2" d="M65.74,76.64a1.47,1.47,0,0,1-1-.39L64.46,76A10.17,10.17,0,1,1,78.83,61.6l.27.28a1.47,1.47,0,0,1-2.16,2l-.19-.2A7.22,7.22,0,0,0,66.54,73.89l.2.19a1.47,1.47,0,0,1-1,2.55Z"/><polygon class="cls-1" points="70.82 90.69 65.89 80.5 66.85 71.85 72.55 65.2 81.04 62.51 90.43 64.49 96.46 71.13 85.69 81.08 83.05 83.57 76.47 85.7 70.82 90.69"/><path class="cls-2" d="M70.82,92.16a1.47,1.47,0,0,1-1-.42l-1.3-1.28-.06-.06a17.58,17.58,0,0,1,24.51-25.1l.08.08.56.56,5.29-4.84a1.47,1.47,0,0,1,.85-.38l15.52-1.51,3.2-2.34a1.47,1.47,0,0,1,1.74,2.38l-3.53,2.58a1.47,1.47,0,0,1-.73.28L100.5,63.6l-6,5.46a1.47,1.47,0,0,1-2-.05L91,67.49a14.63,14.63,0,0,0-20.39,20.9l1.27,1.25a1.47,1.47,0,0,1-1,2.52Z"/><path class="cls-2" d="M87.84,65.29h-.17a1.47,1.47,0,0,1-1.29-1.63l1.28-11L78.42,41.79a2.27,2.27,0,0,1-.5-1.93l.84-4.19a1.47,1.47,0,1,1,2.89.58l-.77,3.87,9.21,10.82a2.29,2.29,0,0,1,.53,1.74L89.3,64A1.47,1.47,0,0,1,87.84,65.29Z"/><path class="cls-2" d="M54.5,88.56A2.29,2.29,0,0,1,53,88L42.2,78.8l-3.87.77a1.47,1.47,0,0,1-.58-2.89l4.19-.84a2.27,2.27,0,0,1,1.93.5l10.85,9.24,11-1.27a1.47,1.47,0,0,1,.34,2.93l-11.3,1.31Z"/><path class="cls-2" d="M60.44,118.4a1.47,1.47,0,0,1-1.19-2.34l2.34-3.21L63.1,97.34a1.47,1.47,0,0,1,.38-.85l5.79-6.33a1.47,1.47,0,0,1,2.17,2l-5.46,6-1.5,15.43a1.47,1.47,0,0,1-.28.73l-2.58,3.53A1.47,1.47,0,0,1,60.44,118.4Z"/><path class="cls-3" d="M70.82,90.69l7.24-7.24a.74.74,0,0,1,.5-.22l6.65-.19a.74.74,0,0,0,.72-.7l.32-6.81a.74.74,0,0,1,.22-.49L93.53,68c15,15.42,22.09,32.54,16,38.67S86.44,105.72,71.1,91Z"/><path class="cls-2" d="M103.25,110.3c-8.51,0-21.13-6.7-33.17-18.29l-1.35-1.31L77,82.41a2.21,2.21,0,0,1,1.5-.65l6-.17.29-6.13A2.21,2.21,0,0,1,85.42,74l8.13-8.13,1,1.07c15.91,16.4,22.76,33.92,15.94,40.74A9.94,9.94,0,0,1,103.25,110.3ZM72.93,90.66c14.41,13.56,30.21,20.25,35.52,14.94S106.86,84.3,93.51,70.09l-5.8,5.8-.31,6.53a2.22,2.22,0,0,1-2.15,2.11l-6.36.18Z"/><path class="cls-2" d="M109.49,108.12a1.47,1.47,0,0,1-1-.43l-23.8-23.8a1.47,1.47,0,0,1,2.08-2.08l23.8,23.8a1.47,1.47,0,0,1-1,2.51Z"/><path class="cls-2" d="M129.1,87.17H129l-6.62-.3a1.47,1.47,0,0,1-1-.43L110.3,75.3,99,75.54a1.47,1.47,0,1,1-.06-2.94l11.92-.26a1.47,1.47,0,0,1,1.07.43L123.12,84l6.05.27a1.47,1.47,0,0,1-.06,2.94Z"/><path class="cls-2" d="M88.21,128.06a1.47,1.47,0,0,1-1.47-1.41l-.27-6.05L75.29,109.42a1.47,1.47,0,0,1-.43-1.07l.26-11.92a1.47,1.47,0,0,1,2.95.06l-.25,11.29L89,118.92a1.47,1.47,0,0,1,.43,1l.3,6.62a1.47,1.47,0,0,1-1.41,1.54Z"/><path class="cls-4" d="M75.51,88.1l-2.66,2.59s22.53,21.17,34.44,15.79C107.29,106.48,91.65,105.35,75.51,88.1Z"/><path class="cls-4" d="M87.36,82.48l.33-6.7L109.49,100s1.42,1.21-.15,4.39Z"/><path class="cls-5" d="M65.16,72a7.31,7.31,0,0,1,.08-6.53s-.13,2.7,1.84,3A20.63,20.63,0,0,0,65.16,72Z"/><path class="cls-2" d="M66.85,62.75a1.47,1.47,0,0,1-1.1-.49c-.65-.72-15.85-18-16.44-38.81a1.47,1.47,0,0,1,2.94-.08C52.82,43.15,67.8,60.13,68,60.3a1.47,1.47,0,0,1-1.1,2.45Z"/><path class="cls-2" d="M64.28,65.33a1.47,1.47,0,0,1-1-.37c-.17-.15-17.18-15.14-36.93-15.7a1.47,1.47,0,0,1-1.43-1.51,1.49,1.49,0,0,1,1.51-1.43c20.85.59,38.08,15.8,38.81,16.44a1.47,1.47,0,0,1-1,2.57Z"/></svg>