<svg id="Layer_1" data-name="Layer 1" xmlns="http://www.w3.org/2000/svg" viewBox="0 0 150 150"><defs><style>.cls-1{fill:#f7f7f5;}.cls-2{fill:#3c3b5c;}.cls-3{fill:#eb5160;}.cls-4{fill:#d84e62;}.cls-5{fill:#e5e5e5;}.cls-6{fill:#fc7588;}</style></defs><title>e2e_plumbing</title><path class="cls-1" d="M106.88,52a15,15,0,0,0-30.09,0"/><path class="cls-2" d="M106.88,53.5A1.53,1.53,0,0,1,105.35,52a13.51,13.51,0,0,0-27,0,1.53,1.53,0,0,1-3.07,0,16.58,16.58,0,0,1,33.16,0A1.53,1.53,0,0,1,106.88,53.5Z"/><path class="cls-1" d="M95.61,76.5H124.7a1.15,1.15,0,0,0,1.15-1.15V53.12A1.15,1.15,0,0,0,124.7,52H59.27c-33,0-32.05,39.64-31.63,46.73a1.15,1.15,0,0,0,1.15,1.08h25a1.15,1.15,0,0,0,1.15-1.14A63.47,63.47,0,0,1,56,86.93C58.17,75.87,66.66,76.5,66.66,76.5H83.39"/><path class="cls-2" d="M53.74,101.31h-25a2.69,2.69,0,0,1-2.68-2.52A78.6,78.6,0,0,1,27,81.92c1.62-9.66,5-17.26,10-22.6,5.55-5.89,13-8.88,22.23-8.88H124.7a2.69,2.69,0,0,1,2.68,2.68V75.35A2.69,2.69,0,0,1,124.7,78H95.61a1.53,1.53,0,1,1,0-3.07h28.71V53.5H59.26c-8.32,0-15,2.66-20,7.92C28.53,72.81,28.89,93.33,29.15,98.24H53.36a64.56,64.56,0,0,1,1.13-11.61c1.24-6.31,4.47-9.15,7-10.43A11,11,0,0,1,66.7,75H83.39a1.53,1.53,0,1,1,0,3.07H66.55c-.29,0-7.18-.32-9.05,9.19a62.2,62.2,0,0,0-1.07,11.43A2.7,2.7,0,0,1,53.74,101.31Z"/><path class="cls-2" d="M91.83,38.46a1.53,1.53,0,0,1-1.53-1.53V18.79a1.53,1.53,0,1,1,3.07,0V36.92A1.53,1.53,0,0,1,91.83,38.46Z"/><circle class="cls-3" cx="73.26" cy="25.26" r="6.24"/><path class="cls-2" d="M73.26,33A7.78,7.78,0,1,1,81,25.26,7.79,7.79,0,0,1,73.26,33Zm0-12.48A4.71,4.71,0,1,0,78,25.26,4.71,4.71,0,0,0,73.26,20.55Z"/><circle class="cls-3" cx="110.66" cy="25.26" r="6.24"/><path class="cls-2" d="M110.66,33a7.78,7.78,0,1,1,7.78-7.78A7.79,7.79,0,0,1,110.66,33Zm0-12.48a4.71,4.71,0,1,0,4.71,4.71A4.71,4.71,0,0,0,110.66,20.55Z"/><rect class="cls-2" x="79.5" y="23.73" width="24.91" height="3.07"/><path class="cls-3" d="M40.81,105.14c-10.51,16.13-7.56,22.42-4.11,24.52a8.19,8.19,0,0,0,4,1,8.07,8.07,0,0,0,4-1.1C48.13,127.46,51.23,121.13,40.81,105.14Z"/><path class="cls-2" d="M40.71,132.24h-.17A9.55,9.55,0,0,1,35.9,131a8,8,0,0,1-3.65-5.25c-1.14-5.05,1.3-12.26,7.27-21.42l1.29-2,1.29,2c5.86,9,8.24,16.12,7.1,21.19a8.31,8.31,0,0,1-3.79,5.44A9.52,9.52,0,0,1,40.71,132.24Zm.1-24.24c-5.64,9.22-6.18,14.33-5.56,17a5,5,0,0,0,2.25,3.31,6.29,6.29,0,0,0,6.31,0,5.27,5.27,0,0,0,2.4-3.49C46.81,122.1,46.31,117,40.81,108Z"/><path class="cls-4" d="M40.8,108s-5.12,17.07,0,21.18C40.8,129.17,27.72,130,40.8,108Z"/><path class="cls-5" d="M86.57,39.49A17,17,0,0,0,83,50.37H78.32S79.32,42.37,86.57,39.49Z"/><path class="cls-5" d="M50.21,54.68S35,63.82,34.06,98.22H29S26.41,61.27,50.21,54.68Z"/><path class="cls-4" d="M71.55,20.87s-4,4.6,0,8.79a4.7,4.7,0,0,1,0-8.79Z"/><path class="cls-4" d="M108.37,21.16s-3.29,5.14,1.31,8.7a4.7,4.7,0,0,1-1.31-8.7Z"/><circle class="cls-6" cx="112.61" cy="27.47" r="1.29"/><circle class="cls-6" cx="75.39" cy="27.47" r="1.29"/><path class="cls-2" d="M89.49,78h-.11a1.53,1.53,0,0,1,0-3.07h.11a1.53,1.53,0,0,1,0,3.07Z"/></svg>