<svg id="Layer_1" data-name="Layer 1" xmlns="http://www.w3.org/2000/svg" viewBox="0 0 150 150"><defs><style>.cls-1{fill:#f7f7f5;}.cls-2{fill:#e5e5e5;}.cls-3{fill:#3c3b5c;}.cls-4{fill:#eb5160;}</style></defs><title>e2e_beauty1</title><polygon class="cls-1" points="38.23 49.65 47.89 30.96 69.89 25.32 84.3 28.76 91.2 21.53 105.75 22.98 112.1 26.86 116.47 32.42 118.55 42.16 118.55 49.65 113.19 57.95 117.39 68.31 118.55 80.64 112.28 96.1 101.75 107.72 96 112.56 95.14 117.49 96.41 119.24 91.51 124.73 62.51 128.19 62.83 113.64 57.23 111.47 50.55 112.95 36.66 115.88 35.4 104.83 31.9 90.8 28.27 80.64 36.45 56.84 38.23 49.65"/><path class="cls-2" d="M42.06,43.3a117.53,117.53,0,0,1-1.83,20.45A61.79,61.79,0,0,1,33.56,82s3.39,5.41,0,9.6a3.25,3.25,0,0,1,1.94,5s4.33.21,2.31,5.49-2.47,18.68,6.24,12.33c0,0-6.74,6.64-11.26-1.17l.4-10.29-3.81-3.74V95.37l-1.67-1.84,1.5-6.2L24.05,84.7,22.83,81,33,65.83,38.26,42.9l3.8-2.53Z"/><path class="cls-3" d="M62.5,130.64l-.26,0a1.59,1.59,0,0,1-1.32-1.84c1.66-10.2-.14-13.81-2-15-3-2.07-8.34,1-8.39,1l-.19.1c-8.55,3.65-14.21,4.14-17.31,1.49-3.65-3.12-2.14-9.11-1.49-11.67l.05-.21c.33-1.34-.33-2-2-3.13a5.23,5.23,0,0,1-1.54-1.28c-.79-1.13-.34-2.33.42-3.35a3.86,3.86,0,0,1-1.15-1.16,4.07,4.07,0,0,1,0-4,6.42,6.42,0,0,0,.7-2.77,9.12,9.12,0,0,1-6.7-5.51,1.59,1.59,0,0,1,.28-1.58C29.68,72.06,32,64.79,33.5,53.94c1.78-12.46,7.71-15,8-15.06a1.61,1.61,0,0,1,1.22,3c-.14.07-4.53,2.24-6,12.54-1.56,10.9-4,18.76-11.95,28.55a5.94,5.94,0,0,0,4.61,2.79,1.58,1.58,0,0,1,1,.5c.32.34,1.81,2.26-.13,6.62-.25.56-.25.89-.18,1a2.35,2.35,0,0,0,1.51.56,1.61,1.61,0,0,1,.88,2.89,9.15,9.15,0,0,0-1.31,1.21l.21.13c1.41.92,4.34,2.83,3.39,6.6l0,.22c-.46,1.81-1.67,6.61.46,8.44,1.16,1,4.49,2,13.87-2,.92-.52,7.24-3.93,11.74-.86,3.81,2.59,4.89,8.54,3.31,18.21A1.61,1.61,0,0,1,62.5,130.64Z"/><path class="cls-2" d="M91.2,21.53S111.86,34.16,97,51.6c0,0,5.8-9.83-10.72-24.44Z"/><path class="cls-3" d="M111.07,58.13a1.61,1.61,0,0,1-.43-3.16c.12,0,7.78-2.27,7.71-8.29-.1-8.54-3.15-23-22.47-24.1-.73,0-6.84-.27-8,7.39a1.6,1.6,0,1,1-3.17-.47C86.33,18.68,96,19.37,96.11,19.38c22.69,1.24,25.36,19.48,25.45,27.27.1,8.51-9.65,11.3-10.06,11.42A1.65,1.65,0,0,1,111.07,58.13Z"/><path class="cls-2" d="M42.06,38.56,47.89,31l4.16-1.9s-5.72,28,19.26,39.53l.82,1.65H60.46L48.47,62,42.33,46.55Z"/><path class="cls-3" d="M74.06,72.23a1.59,1.59,0,0,1-.59-.12,3.82,3.82,0,0,0-1.25-.26c-14.28,1.61-21.94-4.52-25.85-10-6.74-9.39-6.72-22.34-4.82-26.35,3.12-6.61,22.19-17.67,43.4-8.24,6.89,3.06,11.37,7.37,13.32,12.8a20.9,20.9,0,0,1-.86,15.22,1.6,1.6,0,0,1-2.87-1.43c0-.11,3-6.3.69-12.74-1.65-4.56-5.54-8.23-11.58-10.91-19.55-8.69-36.78,1.55-39.2,6.67C43.06,39.84,42.93,51.58,49,60c5,6.92,12.69,9.82,23,8.64h.14a6.71,6.71,0,0,1,2.58.49,1.61,1.61,0,0,1,.9,2.08A1.63,1.63,0,0,1,74.06,72.23Z"/><path class="cls-3" d="M92.23,126.33a1.61,1.61,0,0,1-1.16-.49A11.88,11.88,0,0,1,87.43,117a16.22,16.22,0,0,1,3.73-9c-10.1-1.63-15.33-6.51-18-10.52a1.61,1.61,0,0,1,2.68-1.77c3.67,5.54,10,8.73,18.73,9.47A1.61,1.61,0,0,1,96,106.2a1.57,1.57,0,0,1-.45,1.7c-.05,0-4.69,4.24-4.88,9.21a8.81,8.81,0,0,0,2.76,6.51,1.61,1.61,0,0,1,0,2.27A1.58,1.58,0,0,1,92.23,126.33Z"/><path class="cls-3" d="M96.14,120a1.61,1.61,0,0,1-1.33-.71,6.74,6.74,0,0,1-1-5.66c1.16-4.2,6.32-6.91,7.18-7.34,1-.69,13.23-9.39,15.71-27.57a29.05,29.05,0,0,0,.27-5,1.61,1.61,0,1,1,3.21-.1,32.37,32.37,0,0,1-.3,5.51c-2.79,20.39-16.63,29.5-17.22,29.87l-.18.1c-1.31.63-4.87,2.81-5.58,5.36a3.56,3.56,0,0,0,.62,3A1.61,1.61,0,0,1,96.14,120Zm5.61-12.32h0Z"/><path class="cls-3" d="M114.05,61.65a1.6,1.6,0,0,1-1.32-.69,25.11,25.11,0,0,0-9.08-7.9A1.6,1.6,0,1,1,105,50.13a28.09,28.09,0,0,1,10.4,9,1.61,1.61,0,0,1-.39,2.24A1.67,1.67,0,0,1,114.05,61.65Z"/><polygon class="cls-1" points="80.98 85.39 77.59 76.82 131.14 58.6 132.6 62.31 80.98 85.39"/><path class="cls-3" d="M81,87a1.62,1.62,0,0,1-1.5-1L76.1,77.41a1.58,1.58,0,0,1,0-1.26,1.61,1.61,0,0,1,.94-.85l53.54-18.21a1.6,1.6,0,0,1,2,.93l1.46,3.7a1.59,1.59,0,0,1-.83,2.05L81.63,86.85A1.65,1.65,0,0,1,81,87ZM79.7,77.8l2.15,5.44,48.69-21.77-.33-.85Z"/><rect class="cls-1" x="66.16" y="75.04" width="9.21" height="18.87" transform="translate(18.21 181.33) rotate(-111.56)"/><path class="cls-3" d="M63.68,93.83a1.61,1.61,0,0,1-1.49-1l-3.38-8.56a1.59,1.59,0,0,1,0-1.23,1.61,1.61,0,0,1,.88-.86l17.55-6.93a1.61,1.61,0,0,1,2.08.9l3.38,8.57a1.6,1.6,0,0,1-.9,2.08L64.27,93.71A1.52,1.52,0,0,1,63.68,93.83Zm-1.3-9.27,2.21,5.58,14.56-5.76-2.21-5.57Z"/><path class="cls-4" d="M63.68,92.22s-10,6.41-19.36,2.7c0,0,2.92-8,16-11.26Z"/><path class="cls-3" d="M50.63,97.69a18.67,18.67,0,0,1-6.9-1.28,1.6,1.6,0,0,1-.92-2c.13-.36,3.38-8.83,17.1-12.27a1.61,1.61,0,0,1,1.88,1l3.39,8.56a1.6,1.6,0,0,1-.63,1.94A28.44,28.44,0,0,1,50.63,97.69Zm-4-3.7c6.24,1.59,12.53-1.16,15-2.48l-2.35-5.93C51.56,87.85,48,91.82,46.63,94Z"/></svg>