<svg id="Layer_1" data-name="Layer 1" xmlns="http://www.w3.org/2000/svg" viewBox="0 0 150 150"><defs><style>.cls-1{fill:#fff;}.cls-2,.cls-6{fill:none;}.cls-2,.cls-3,.cls-5,.cls-6{stroke:#3c3b5c;stroke-miterlimit:10;}.cls-2,.cls-3,.cls-5{stroke-width:3px;}.cls-3,.cls-7{fill:#eb5160;}.cls-4{fill:#3c3b5c;}.cls-5{fill:#f7f7f5;stroke-linecap:round;}.cls-6{stroke-width:2.5px;}.cls-8{fill:#d84e62;}.cls-9{fill:#fc7588;}</style></defs><title>Hj assist</title><polygon class="cls-1" points="53.22 49.3 85.21 20.09 117.19 49.3 117.19 91.71 53.22 91.71 53.22 49.3"/><path class="cls-1" d="M26.92,104.34s27.53-3.75,40.67,8.14l20-8.14s15.64-3.75,4.38,8.14S59.45,135,59.45,135l-33.16-5.63Z"/><path class="cls-2" d="M104.18,92S107.72,71.1,85,70.65,64.81,92,64.81,92h52.44V50.22L86.39,19.81,53.25,50.22V63.38l0,1.35"/><circle class="cls-3" cx="84.35" cy="60.28" r="10.67"/><path class="cls-4" d="M94.28,105.33a6.87,6.87,0,0,0-9.34-2.54c-.59.29-8.19,4-14.46,6.66A1.38,1.38,0,0,0,71.55,112c6.57-2.77,14.57-6.72,14.65-6.76l.07,0a4.14,4.14,0,0,1,5.63,1.51c1.32,2.28-.74,4.78-1.74,5.8-6.82,5.5-25.69,19.61-32,19.61-7,0-26.76-4.18-31.59-5.23V104.44c9.57-1.4,14.64.36,25.26,4.06,3.23,1.13,6.89,2.4,11.34,3.82A2.92,2.92,0,0,1,64.94,116a3.32,3.32,0,0,1-3.82,2.41c-2.7-.51-18.62-2.67-19.29-2.76a1.37,1.37,0,1,0-.37,2.72c.16,0,16.52,2.24,19.16,2.74a6.93,6.93,0,0,0,1.19.11,6.09,6.09,0,0,0,5.76-4.43,5.63,5.63,0,0,0-3.4-7h0l-.06,0-.06,0c-4.44-1.42-8.1-2.7-11.33-3.82-10.6-3.69-16.18-5.64-26.17-4.24v-1.15a1.37,1.37,0,0,0-1.37-1.37H21.21c-.34,0-.69,0-1,0s-.86.16-1.32.2a7.53,7.53,0,0,1-.56.57v31.35a8.27,8.27,0,0,1,.69.77H19c.25,0,.5,0,.74,0l.69,0c.2,0,.38,0,.57,0V132h4.12a1.37,1.37,0,0,0,1.37-1.38v-1c5.75,1.24,24.46,5.16,31.59,5.16,3.76,0,10.41-3.34,20.35-10.22,7.17-5,13.41-10,13.47-10l.11-.1C95,111.5,95.87,108.08,94.28,105.33Zm-70.49,24H21v-27.4h2.75Z"/><line class="cls-5" x1="52.97" y1="68.1" x2="53.01" y2="67.78"/><polyline class="cls-6" points="70.44 91.98 53.22 91.9 53.22 73.18 53.22 71.37"/><rect class="cls-7" x="20.61" y="100.89" width="4.3" height="29.39"/><rect class="cls-8" x="20.87" y="101.78" width="4.78" height="3.19"/><rect class="cls-9" x="21.5" y="121.27" width="2.72" height="6.07" rx="1.23" ry="1.23" transform="translate(45.73 248.61) rotate(180)"/></svg>